<?xml version="1.0" encoding="UTF-8"?>
<svg width="12px" height="12px" viewBox="0 0 12 12" version="1.1" xmlns="http://www.w3.org/2000/svg" xmlns:xlink="http://www.w3.org/1999/xlink">
    <!-- Generator: Sketch 49.1 (51147) - http://www.bohemiancoding.com/sketch -->
    <title>small-add</title>
    <desc>Created with Sketch.</desc>
    <defs></defs>
    <g id="Page-1" stroke="none" stroke-width="1" fill="none" fill-rule="evenodd">
        <g id="flow-dash-admin" transform="translate(-1298.000000, -119.000000)" fill="#FFFFFF" fill-rule="nonzero">
            <g id="small-add" transform="translate(1298.000000, 119.000000)">
                <path d="M11,5 L7,5 L7,1 C7,0.4 6.6,0 6,0 C5.4,0 5,0.4 5,1 L5,5 L1,5 C0.4,5 0,5.4 0,6 C0,6.6 0.4,7 1,7 L5,7 L5,11 C5,11.6 5.4,12 6,12 C6.6,12 7,11.6 7,11 L7,7 L11,7 C11.6,7 12,6.6 12,6 C12,5.4 11.6,5 11,5 Z" id="Shape"></path>
            </g>
        </g>
    </g>
</svg>