<?xml version="1.0" encoding="UTF-8"?>
<svg width="24px" height="20px" viewBox="0 0 24 20" version="1.1" xmlns="http://www.w3.org/2000/svg" xmlns:xlink="http://www.w3.org/1999/xlink">
    <!-- Generator: Sketch 49.1 (51147) - http://www.bohemiancoding.com/sketch -->
    <title>chart-bars</title>
    <desc>Created with Sketch.</desc>
    <defs></defs>
    <g id="Page-1" stroke="none" stroke-width="1" fill="none" fill-rule="evenodd">
        <g id="flow-dash-admin" transform="translate(-130.000000, -569.000000)" fill="#ACBEC5" fill-rule="nonzero">
            <g id="chart-bars" transform="translate(130.000000, 569.000000)">
                <rect id="Rectangle-path" x="0" y="18" width="24" height="2"></rect>
                <path d="M4,16 L6,16 C6.552,16 7,15.552 7,15 L7,6 C7,5.448 6.552,5 6,5 L4,5 C3.448,5 3,5.448 3,6 L3,15 C3,15.552 3.448,16 4,16 Z" id="Shape"></path>
                <path d="M11,16 L13,16 C13.552,16 14,15.552 14,15 L14,1 C14,0.448 13.552,0 13,0 L11,0 C10.448,0 10,0.448 10,1 L10,15 C10,15.552 10.448,16 11,16 Z" id="Shape"></path>
                <path d="M17,10 L17,15 C17,15.552 17.448,16 18,16 L20,16 C20.552,16 21,15.552 21,15 L21,10 C21,9.448 20.552,9 20,9 L18,9 C17.448,9 17,9.448 17,10 Z" id="Shape"></path>
            </g>
        </g>
    </g>
</svg>