<?xml version="1.0" encoding="UTF-8"?>
<svg width="24px" height="24px" viewBox="0 0 24 24" version="1.1" xmlns="http://www.w3.org/2000/svg" xmlns:xlink="http://www.w3.org/1999/xlink">
    <!-- Generator: Sketch 49.1 (51147) - http://www.bohemiancoding.com/sketch -->
    <title>Shape</title>
    <desc>Created with Sketch.</desc>
    <defs></defs>
    <g id="Page-1" stroke="none" stroke-width="1" fill="none" fill-rule="evenodd">
        <g id="flow-dash-admin" transform="translate(-873.000000, -528.000000)" fill="#00233C" fill-rule="nonzero">
            <g id="tile-copy" transform="translate(708.000000, 442.000000)">
                <g id="tile" transform="translate(25.000000, 16.000000)">
                    <g id="dashboard-level" transform="translate(140.000000, 70.000000)">
                        <path d="M12,0 C5.383,0 0,5.383 0,12 C0,18.617 5.383,24 12,24 C18.617,24 24,18.617 24,12 C24,5.383 18.617,0 12,0 Z M12.618,14 L8.895,6.553 L7.105,7.447 L10.382,14 L2.202,14 C2.07,13.354 2,12.685 2,12 C2,6.486 6.486,2 12,2 C17.514,2 22,6.486 22,12 C22,12.685 21.93,13.354 21.798,14 L12.618,14 Z" id="Shape"></path>
                    </g>
                </g>
            </g>
        </g>
    </g>
</svg>