<?xml version="1.0" encoding="UTF-8"?>
<svg width="20px" height="20px" viewBox="0 0 20 20" version="1.1" xmlns="http://www.w3.org/2000/svg" xmlns:xlink="http://www.w3.org/1999/xlink">
    <!-- Generator: Sketch 49.1 (51147) - http://www.bohemiancoding.com/sketch -->
    <title>ic_info_outline_24px</title>
    <desc>Created with Sketch.</desc>
    <defs></defs>
    <g id="Page-1" stroke="none" stroke-width="1" fill="none" fill-rule="evenodd">
        <g id="flow-dash-question-detail" transform="translate(-463.000000, -426.000000)" fill="#22A2DE" fill-rule="nonzero">
            <g id="info" transform="translate(463.000000, 426.000000)">
                <g id="ic_info_outline_24px">
                    <path d="M9,15 L11,15 L11,9 L9,9 L9,15 Z M10,0 C4.48,0 0,4.48 0,10 C0,15.52 4.48,20 10,20 C15.52,20 20,15.52 20,10 C20,4.48 15.52,0 10,0 Z M10,18 C5.59,18 2,14.41 2,10 C2,5.59 5.59,2 10,2 C14.41,2 18,5.59 18,10 C18,14.41 14.41,18 10,18 Z M9,7 L11,7 L11,5 L9,5 L9,7 Z" id="Shape"></path>
                </g>
            </g>
        </g>
    </g>
</svg>