<?xml version="1.0" encoding="UTF-8"?>
<svg width="18px" height="22px" viewBox="0 0 18 22" version="1.1" xmlns="http://www.w3.org/2000/svg" xmlns:xlink="http://www.w3.org/1999/xlink">
    <!-- Generator: Sketch 49.1 (51147) - http://www.bohemiancoding.com/sketch -->
    <title>edit-74</title>
    <desc>Created with Sketch.</desc>
    <defs></defs>
    <g id="Page-1" stroke="none" stroke-width="1" fill="none" fill-rule="evenodd">
        <g id="flow-dash-question-create" transform="translate(-1050.000000, -517.000000)" fill="#22A2DE" fill-rule="nonzero">
            <g id="drpdwn-copy-4" transform="translate(886.000000, 477.000000)">
                <g id="edit-74" transform="translate(164.000000, 40.000000)">
                    <path d="M17,22 L1,22 C0.4,22 0,21.6 0,21 C0,20.4 0.4,20 1,20 L17,20 C17.6,20 18,20.4 18,21 C18,21.6 17.6,22 17,22 Z" id="Shape"></path>
                    <path d="M15.7,7.3 L17.3,5.7 C17.7,5.3 17.7,4.7 17.3,4.3 L13.7,0.7 C13.3,0.3 12.7,0.3 12.3,0.7 L10.7,2.3 L15.7,7.3 Z" id="Shape"></path>
                    <path d="M9.3,3.7 L1.3,11.7 C1.1,11.9 1,12.1 1,12.4 L1,16 C1,16.6 1.4,17 2,17 L5.6,17 C5.9,17 6.1,16.9 6.3,16.7 L14.3,8.7 L9.3,3.7 Z" id="Shape"></path>
                </g>
            </g>
        </g>
    </g>
</svg>