<?xml version="1.0" encoding="UTF-8"?>
<svg width="23px" height="22px" viewBox="0 0 23 22" version="1.1" xmlns="http://www.w3.org/2000/svg" xmlns:xlink="http://www.w3.org/1999/xlink">
    <!-- Generator: Sketch 49.1 (51147) - http://www.bohemiancoding.com/sketch -->
    <title>Shape</title>
    <desc>Created with Sketch.</desc>
    <defs></defs>
    <g id="Page-1" stroke="none" stroke-width="1" fill="none" fill-rule="evenodd">
        <g id="flow-dash-question-create" transform="translate(-1163.000000, -517.000000)" fill="#22A2DE" fill-rule="nonzero">
            <g id="drpdwn-copy-4" transform="translate(886.000000, 477.000000)">
                <g id="tool-hand" transform="translate(277.000000, 40.000000)">
                    <path d="M21.5,3 C20.6715729,3 20,3.67157288 20,4.5 L20,10 L19,10 L19,2.5 C19,1.67157288 18.3284271,1 17.5,1 C16.6715729,1 16,1.67157288 16,2.5 L16,10 L15,10 L15,1.5 C15,0.671572875 14.3284271,0 13.5,0 C12.6715729,0 12,0.671572875 12,1.5 L12,10 L11,10 L11,2.5 C11,1.67157288 10.3284271,1 9.5,1 C8.67157288,1 8,1.67157288 8,2.5 L8,12.382 C7.99981504,12.7284401 7.82033216,13.0501037 7.52560567,13.2321945 C7.23087919,13.4142854 6.86290246,13.4308588 6.553,13.276 L3.1,11.548 C2.34058271,11.167926 1.41717451,11.4065692 0.937,12.107 C0.500839435,12.7916136 0.583103845,13.6845938 1.137,14.278 L5.317,18.978 C7.0242854,20.8994293 9.47164721,21.9991955 12.042,22 L14,22 C18.9705627,22 23,17.9705627 23,13 L23,4.5 C23,3.67157288 22.3284271,3 21.5,3 Z" id="Shape"></path>
                </g>
            </g>
        </g>
    </g>
</svg>