<?xml version="1.0" encoding="UTF-8"?>
<svg width="19px" height="20px" viewBox="0 0 19 20" version="1.1" xmlns="http://www.w3.org/2000/svg" xmlns:xlink="http://www.w3.org/1999/xlink">
    <!-- Generator: Sketch 49.1 (51147) - http://www.bohemiancoding.com/sketch -->
    <title>ic_settings_24px</title>
    <desc>Created with Sketch.</desc>
    <defs></defs>
    <g id="Page-1" stroke="none" stroke-width="1" fill="none" fill-rule="evenodd">
        <g id="flow-dash-admin" transform="translate(-133.000000, -646.000000)" fill="#ACBEC5" fill-rule="nonzero">
            <g id="ic_settings_24px" transform="translate(133.000000, 646.000000)">
                <path d="M16.7586708,10.98 C16.7977369,10.66 16.8270364,10.34 16.8270364,10 C16.8270364,9.66 16.7977369,9.34 16.7586708,9.02 L18.8194035,7.37 C19.0049671,7.22 19.0537997,6.95 18.9366016,6.73 L16.9833005,3.27 C16.8661024,3.05 16.6024068,2.97 16.3875436,3.05 L13.9556837,4.05 C13.4478254,3.65 12.9009011,3.32 12.3051443,3.07 L11.9340171,0.42 C11.9047176,0.18 11.6996209,0 11.4554583,0 L7.54885605,0 C7.30469341,0 7.09959679,0.18 7.07029727,0.42 L6.69917006,3.07 C6.10341322,3.32 5.5564889,3.66 5.04863061,4.05 L2.61677071,3.05 C2.39214109,2.96 2.13821194,3.05 2.02101387,3.27 L0.0677127499,6.73 C-0.0592518231,6.95 -0.000652789395,7.22 0.184910817,7.37 L2.2456435,9.02 C2.20657748,9.34 2.17727796,9.67 2.17727796,10 C2.17727796,10.33 2.20657748,10.66 2.2456435,10.98 L0.184910817,12.63 C-0.000652789395,12.78 -0.0494853175,13.05 0.0677127499,13.27 L2.02101387,16.73 C2.13821194,16.95 2.40190759,17.03 2.61677071,16.95 L5.04863061,15.95 C5.5564889,16.35 6.10341322,16.68 6.69917006,16.93 L7.07029727,19.58 C7.09959679,19.82 7.30469341,20 7.54885605,20 L11.4554583,20 C11.6996209,20 11.9047176,19.82 11.9340171,19.58 L12.3051443,16.93 C12.9009011,16.68 13.4478254,16.34 13.9556837,15.95 L16.3875436,16.95 C16.6121733,17.04 16.8661024,16.95 16.9833005,16.73 L18.9366016,13.27 C19.0537997,13.05 19.0049671,12.78 18.8194035,12.63 L16.7586708,10.98 Z M9.50215717,13.5 C7.61722159,13.5 6.08388021,11.93 6.08388021,10 C6.08388021,8.07 7.61722159,6.5 9.50215717,6.5 C11.3870928,6.5 12.9204341,8.07 12.9204341,10 C12.9204341,11.93 11.3870928,13.5 9.50215717,13.5 Z" id="Shape"></path>
            </g>
        </g>
    </g>
</svg>